# AST/ASF file generated using VICON BodyLanguage
# -----------------------------------------------
:version 1.10
:name VICON
:units
  mass 1.0
  length 0.45
  angle deg
:documentation
   .ast/.asf automatically generated from VICON data using
   VICON BodyBuilder and BodyLanguage model FoxedUp or BRILLIANT.MOD
:root
   order TX TY TZ RX RY RZ
   axis XYZ
   position 0 0 0  
   orientation 0 0 0 
:bonedata
  begin
     id 1 
     name lhipjoint
     direction 0.543289 -0.788407 0.288535 
     length 2.57127 
     axis 0 0 0  XYZ
  end
  begin
     id 2 
     name lfemur
     direction 0.34202 -0.939693 0  
     length 8.47298  
     axis 0 0 20  XYZ
    dof rx ry rz
    limits (-160.0 20.0)
           (-70.0 70.0)
           (-60.0 70.0)
  end
  begin
     id 3 
     name ltibia
     direction 0.34202 -0.939693 0   
     length 8.13367   
     axis 0 0 20   XYZ
    dof rx
    limits (-10.0 170.0)
  end
  begin
     id 4 
     name lfoot
     direction 0.114037 -0.313314 0.942778   
     length 2.67113   
     axis -90 7.62852e-016 20   XYZ
    dof rx rz
    limits (-45.0 90.0)
           (-70.0 20.0)
  end
  begin
     id 5 
     name ltoes
     direction 1.536e-011 -4.21847e-011 1   
     length 1.32217   
     axis -90 7.62852e-016 20   XYZ
    dof rx
    limits (-90.0 20.0)
  end
  begin
     id 6 
     name rhipjoint
     direction -0.571293 -0.770752 0.282074   
     length 2.63017  
     axis 0 0 0  XYZ 
  end
  begin
     id 7 
     name rfemur
     direction -0.34202 -0.939693 0   
     length 8.60885   
     axis 0 0 -20   XYZ
    dof rx ry rz
    limits (-160.0 20.0)
           (-70.0 70.0)
           (-70.0 60.0)
  end
  begin
     id 8 
     name rtibia
     direction -0.34202 -0.939693 0   
     length 8.07673   
     axis 0 0 -20   XYZ
    dof rx
    limits (-10.0 170.0)
 end
 begin
     id 9 
     name rfoot
     direction -0.121336 -0.333368 0.934956   
     length 2.81602  
     axis -90 -7.62852e-016 -20   XYZ
    dof rx rz
    limits (-45.0 90.0)
           (-20.0 70.0)
  end
  begin
     id 10 
     name rtoes
     direction -1.53491e-011 -4.21808e-011 1   
     length 1.38905   
     axis -90 -7.62852e-016 -20   XYZ
    dof rx
    limits (-90.0 20.0)
  end
  begin
     id 11 
     name lowerback
     direction 0.0136776 0.999869 -0.00861835   
     length 2.14087   
     axis 0 0 0   XYZ
    dof rx ry rz
    limits (-20.0 45.0)
           (-30.0 30.0)
           (-30.0 30.0)
  end
  begin
     id 12 
     name upperback
     direction -0.00789158 0.999804 0.0181308   
     length 2.14151   
     axis 0 0 0   XYZ
    dof rx ry rz
    limits (-20.0 45.0)
           (-30.0 30.0)
           (-30.0 30.0)
  end
  begin
     id 13 
     name thorax
     direction -0.0135231 0.999666 0.0220247   
     length 2.13644   
     axis 0 0 0   XYZ
    dof rx ry rz
    limits (-20.0 45.0)
           (-30.0 30.0)
           (-30.0 30.0)
  end
  begin
     id 14 
     name lowerneck
     direction -0.0392259 0.997317 0.0618018   
     length 1.65045   
     axis 0 0 0   XYZ
    dof rx ry rz
    limits (-20.0 45.0)
           (-30.0 30.0)
           (-30.0 30.0)
  end
  begin
     id 15 
     name upperneck
     direction 0.0765547 0.994276 -0.0745319   
     length 1.66045   
     axis 0 0 0   XYZ
    dof rx ry rz
    limits (-20.0 45.0)
           (-30.0 30.0)
           (-30.0 30.0)
  end
  begin
     id 16
     name head
     direction 0.0241564 0.999031 -0.036785  
     length 1.66594  
     axis 0 0 0   XYZ
    dof rx ry rz
    limits (-20.0 45.0)
           (-30.0 30.0)
           (-30.0 30.0)
  end
  begin
     id 17 
     name lclavicle
     direction 0.967398 0.249018 0.0461573  
     length 3.75176  
     axis 0 0 0   XYZ
    dof ry rz
    limits (-20.0 10.0)
           (0.0 20.0)
  end
  begin
     id 18 
     name lhumerus
     direction 1 -4.48963e-011 -3.05005e-027   
     length 5.93342   
     axis 180 -30 -90   XYZ
    dof rx ry rz
    limits (-60.0 90.0)
           (-90.0 90.0)
           (-90.0 90.0)
  end
  begin
     id 19
     name lradius
     direction 1 -4.48957e-011 1.07006e-026   
     length 3.94763   
     axis 180 -30 -90   XYZ
    dof rx
    limits (-10.0 170.0)
  end
  begin
     id 20
     name lwrist
     direction 1 -4.48978e-011 1.92422e-026   
     length 1.97382   
     axis -1.18182e-014 90 90   XYZ
    dof ry
    limits (-180.0 0.0)
 end
  begin
     id 21 
     name lhand
     direction 1 -4.48931e-011 3.84844e-026   
     length 0.560187   
     axis -2.45563e-014 90 90   XYZ
    dof rx rz
    limits (-90.0 90.0)
           (-45.0 45.0)
  end
  begin
     id 22 
     name lfingers
     direction 1 -4.48952e-011 7.69687e-026   
     length 0.451637   
     axis -4.91126e-014 90 90   XYZ
    dof rx
    limits (0.0 90.0)
  end
  begin
     id 23
     name lthumb
     direction 0.707107 -6.34901e-011 0.707107   
     length 0.648463   
     axis -90 45 2.85299e-015   XYZ
    dof rx rz
    limits (-45.0 45.0)
           (-45.0 45.0)
  end
  begin
     id 24 
     name rclavicle
     direction -0.965946 0.258716 0.00371831   
     length 3.63667  
     axis 0 0 0   XYZ 
    dof ry rz
    limits (-10.0 20.0)
           (-20.0 0.0)
  end
  begin
     id 25 
     name rhumerus
     direction -1 -4.48966e-011 -1.78361e-028  
     length 6.28647   
     axis 180 30 90   XYZ
    dof rx ry rz
    limits (-90.0 60.0)
           (-90.0 90.0)
           (-90.0 90.0)
  end
  begin
     id 26 
     name rradius
     direction -1 -4.48961e-011 1.05248e-026   
     length 3.81645   
     axis 180 30 90   XYZ
    dof rx
    limits (-10.0 170.0)
  end
  begin
     id 27 
     name rwrist
     direction -1 -4.48979e-011 1.92422e-026   
     length 1.90822   
     axis -1.18182e-014 -90 -90   XYZ
    dof ry
    limits (-180.0 0.0)
  end
  begin
     id 28
     name rhand
     direction -1 -4.48937e-011 3.84844e-026   
     length 0.646185   
     axis -2.45563e-014 -90 -90   XYZ
    dof rx rz
    limits (-90.0 90.0)
           (-45.0 45.0)
  end
  begin
     id 29
     name rfingers
     direction -1 -4.48953e-011 7.69687e-026   
     length 0.520971   
     axis -4.91126e-014 -90 -90   XYZ
    dof rx
    limits (0.0 90.0)
  end
  begin
     id 30
     name rthumb
     direction -0.707107 -6.3494e-011 0.707107   
     length 0.748013   
     axis -90 -45 -2.85299e-015   XYZ
    dof rx rz
    limits (-45.0 45.0)
           (-45.0 45.0)
  end
:hierarchy
  begin
    root lhipjoint rhipjoint lowerback
    lhipjoint lfemur
    lfemur ltibia
    ltibia lfoot
    lfoot ltoes
    rhipjoint rfemur
    rfemur rtibia
    rtibia rfoot
    rfoot rtoes
    lowerback upperback
    upperback thorax
    thorax lowerneck lclavicle rclavicle
    lowerneck upperneck
    upperneck head
    lclavicle lhumerus
    lhumerus lradius
    lradius lwrist
    lwrist lhand lthumb
    lhand lfingers
    rclavicle rhumerus
    rhumerus rradius
    rradius rwrist
    rwrist rhand rthumb
    rhand rfingers
  end

#!OML:ASF H:\HAZMAT1\Patient Classification 1\Patient 3\Session 1\dancer.ASF
:FULLY-SPECIFIED
:DEGREES
150
upperback -2.702030 -4.574260 3.049930
rfoot 17.099899 4.295330
lradius 29.480301
lthumb 11.478400 46.971699
rradius 59.397598
lwrist -13.667900
rhand -6.965980 -10.282500
rhumerus -19.057400 30.645500 -89.902802
lowerneck -1.044620 -11.269200 -10.193900
lhand -14.674800 17.306000
ltibia 25.769501
head 7.734450 -9.160890 4.104100
rwrist -12.900700
lfingers 7.125020
rtoes 22.112200
lowerback 1.894380 -3.513630 3.903110
rfingers 7.125020
lclavicle -0.000000 0.000000
upperneck 17.769600 -18.450800 12.461400
rfemur -65.162498 -5.007720 29.287201
thorax -3.903910 -2.397060 1.216440
rclavicle -0.000000 0.000000
rtibia 120.186996
lfoot -1.681230 4.685070
lhumerus -42.428398 5.770380 71.539398
rthumb 18.903500 -39.383900
root -16.547800 20.605200 -13.769500 184.673004 -36.530201 558.848999
ltoes -6.429860
lfemur -14.519600 -40.389900 -6.839220
151
upperback -2.187650 -2.528470 4.790970
rfoot 24.321501 1.437560
lradius 16.532900
lthumb 9.285940 49.409801
rradius 63.780899
lwrist -32.186401
rhand -4.409660 -11.661600
rhumerus -9.411710 34.002701 -88.226196
lowerneck -1.878390 -11.397300 -6.944410
lhand -16.947599 19.634300
ltibia 25.153200
head 7.377400 -7.387070 2.818570
rwrist -12.764600
lfingers 7.125020
rtoes 22.351400
lowerback 1.926760 -2.277540 5.009930
rfingers 7.125020
lclavicle 0.000000 -0.000000
upperneck 18.773500 -16.144100 9.060420
rfemur -66.153603 -8.338240 15.017900
thorax -3.352140 -1.234270 2.264540
rclavicle 0.000000 -0.000000
rtibia 125.829002
lfoot -16.017900 20.453600
lhumerus -59.944099 16.875601 51.177399
rthumb 21.360500 -40.504299
root -16.303699 20.020901 -12.630200 211.490997 42.746899 570.112976
ltoes 23.654400
lfemur -15.826400 -31.411200 -5.436550
152
upperback -1.798010 -0.695896 6.404760
rfoot 11.938700 -26.709299
lradius 15.419500
lthumb 13.261700 52.419800
rradius 58.886398
lwrist -34.185799
rhand -3.848470 -13.179500
rhumerus -10.410600 27.182301 -83.901497
lowerneck -6.276400 -7.798460 -4.952520
lhand -12.825100 22.861700
ltibia 35.731400
head 6.507530 -5.025680 2.600970
rwrist -5.011200
lfingers 7.125020
rtoes 31.124701
lowerback 2.473080 -1.071300 8.068350
rfingers 7.125020
lclavicle 0.000000 0.000000
upperneck 15.531200 -11.185400 8.410360
rfemur -43.074402 0.089230 -11.446800
thorax -3.300840 -0.353694 2.167250
rclavicle 0.000000 0.000000
rtibia 48.645599
lfoot -17.663500 16.968399
lhumerus -59.423698 12.102800 17.474400
rthumb 21.899500 -41.960098
root -15.201800 19.782900 -12.932400 277.816010 66.948303 622.067017
ltoes 22.232000
lfemur -29.828199 -16.735300 -4.300170
153
upperback -1.943780 -1.296220 7.399350
rfoot -65.440498 -48.143299
lradius 20.556801
lthumb 13.318800 55.422600
rradius 55.767200
lwrist -20.628700
rhand -6.274100 -17.360001
rhumerus -9.386660 21.187300 -79.964203
lowerneck -4.993840 -9.721640 -6.534170
lhand -12.765900 25.868200
ltibia 54.067902
head 4.529580 -6.363350 2.506030
rwrist -5.490890
lfingers 7.125020
rtoes 50.196301
lowerback 0.591828 -1.415760 8.917200
rfingers 7.125020
lclavicle 0.000000 -0.000000
upperneck 9.300240 -13.204100 7.406080
rfemur -5.590150 30.757601 -14.512300
thorax -2.409210 -0.618465 2.731570
rclavicle 0.000000 -0.000000
rtibia 25.898500
lfoot -22.700300 6.759460
lhumerus -40.666401 12.139300 12.571500
rthumb 19.568800 -46.395100
root -13.984000 18.782301 -13.254300 290.006989 74.325401 624.510010
ltoes 17.502100
lfemur -45.948502 -4.942330 -16.830799
154
upperback -2.707150 4.577590 3.419970
rfoot -16.473000 -8.049080
lradius 20.521500
lthumb 7.906150 60.230202
rradius 56.913101
lwrist -13.253100
rhand -8.997830 -19.033800
rhumerus -6.669080 27.819099 -79.114998
lowerneck -2.252900 -9.923500 -5.407890
lhand -18.377300 30.398100
ltibia 49.701698
head 4.538830 -6.592960 2.502010
rwrist -3.900420
lfingers 7.125020
rtoes -6.719420
lowerback -2.079620 3.345830 3.284900
rfingers 7.125020
lclavicle 0.000000 0.000000
upperneck 10.873500 -13.748700 7.714620
rfemur -11.842700 2.682030 30.414101
thorax -1.647490 2.309900 1.704940
rclavicle 0.000000 0.000000
rtibia 36.377998
lfoot -15.645700 11.957100
lhumerus -40.712200 16.602200 -7.697610
rthumb 16.948500 -48.314301
root -12.234500 19.110500 -14.393100 348.011993 66.999496 682.598999
ltoes 4.137180
lfemur -39.953701 -9.521350 -22.050301
155
upperback -2.808740 0.967900 -3.273760
rfoot -31.420099 -26.583401
lradius 22.656200
lthumb 7.541820 53.008499
rradius 47.187401
lwrist -10.968100
rhand -12.223100 -21.025499
rhumerus -15.837300 11.648900 -59.001701
lowerneck -3.411670 -5.720720 -3.568620
lhand -18.754801 23.162901
ltibia 67.203102
head 4.370650 -3.769250 1.628340
rwrist 1.707620
lfingers 7.125020
rtoes -13.545200
lowerback -0.130105 0.747548 0.417608
rfingers 7.125020
lclavicle 0.000000 -0.000000
upperneck 10.328800 -7.783860 4.120230
rfemur -14.541200 9.447160 29.848301
thorax -2.750730 0.448199 -3.630280
rclavicle 0.000000 -0.000000
rtibia 33.907101
lfoot -11.422700 8.386870
lhumerus -27.628401 6.012180 6.470890
rthumb 13.842000 -50.544899
root -10.361900 18.907600 -16.895399 386.902008 57.436501 725.520996
ltoes 3.815630
lfemur -55.125198 -12.723500 -11.196500
156
upperback -2.657060 -3.901940 -2.361830
rfoot -27.369200 -13.992400
lradius 34.155701
lthumb 9.130470 50.063900
rradius 27.705099
lwrist 3.033960
rhand -27.922701 -26.855301
rhumerus -49.469898 7.399700 -42.129700
lowerneck -6.042140 -0.241601 1.289590
lhand -17.108700 20.281601
ltibia 42.075600
head 4.525880 -0.133904 -0.515450
rwrist 6.292560
lfingers 7.125020
rtoes -28.458401
lowerback -1.860260 -2.903040 1.788450
rfingers 7.125020
lclavicle -0.000000 0.000000
upperneck 11.814200 -0.310148 -0.936886
rfemur -9.680270 6.394720 13.733800
thorax -1.974360 -2.008680 -3.425290
rclavicle -0.000000 0.000000
rtibia 47.268299
lfoot -25.477600 6.232990
lhumerus -36.737202 -13.513800 50.769001
rthumb -1.311210 -56.831001
root -6.947900 18.366600 -17.632999 385.110992 48.428200 729.036011
ltoes -13.499900
lfemur -28.366301 -18.278400 -5.226980
157
upperback -1.029850 -8.897850 -3.137350
rfoot -15.042600 -12.852900
lradius 67.321098
lthumb 32.214100 38.755100
rradius 17.398100
lwrist 20.298500
rhand -22.057899 -31.655701
rhumerus -77.453003 5.053080 -34.944500
lowerneck -3.877840 4.969800 6.264300
lhand 6.935300 11.592400
ltibia 28.100901
head 4.197650 3.318340 -1.368220
rwrist 15.640200
lfingers 7.125020
rtoes -5.123350
lowerback -2.230260 -6.640110 2.246060
rfingers 7.125020
lclavicle -0.000000 0.000000
upperneck 9.734380 6.390770 -1.736060
rfemur -44.071201 1.929400 13.158000
thorax -0.662234 -4.488930 -4.553270
rclavicle -0.000000 0.000000
rtibia 84.829803
lfoot -33.897400 6.612790
lhumerus -39.944599 -27.519400 75.680000
rthumb 4.352900 -61.591000
root -3.843860 17.928301 -16.511999 376.875000 41.737400 725.127991
ltoes -13.372400
lfemur -1.290140 -19.788500 -15.109500
